<?xml version="1.0" encoding="UTF-8" standalone="no"?>
<!-- Created with Inkscape (http://www.inkscape.org/) -->

<svg
   xmlns:dc="http://purl.org/dc/elements/1.1/"
   xmlns:cc="http://creativecommons.org/ns#"
   xmlns:rdf="http://www.w3.org/1999/02/22-rdf-syntax-ns#"
   xmlns:svg="http://www.w3.org/2000/svg"
   xmlns="http://www.w3.org/2000/svg"
   xmlns:sodipodi="http://sodipodi.sourceforge.net/DTD/sodipodi-0.dtd"
   xmlns:inkscape="http://www.inkscape.org/namespaces/inkscape"
   width="195mm"
   height="110mm"
   viewBox="0 0 690.94488 389.76378"
   id="svg2"
   version="1.1"
   inkscape:version="0.91 r13725"
   sodipodi:docname="Mozi+ logo.svg">
  <defs
     id="defs4" />
  <sodipodi:namedview
     id="base"
     pagecolor="#ffffff"
     bordercolor="#666666"
     borderopacity="1.0"
     inkscape:pageopacity="0.0"
     inkscape:pageshadow="2"
     inkscape:zoom="0.53052786"
     inkscape:cx="121.83662"
     inkscape:cy="379.46476"
     inkscape:document-units="px"
     inkscape:current-layer="layer1"
     showgrid="false"
     inkscape:window-width="1280"
     inkscape:window-height="748"
     inkscape:window-x="-8"
     inkscape:window-y="-8"
     inkscape:window-maximized="1" />
  <metadata
     id="metadata7">
    <rdf:RDF>
      <cc:Work
         rdf:about="">
        <dc:format>image/svg+xml</dc:format>
        <dc:type
           rdf:resource="http://purl.org/dc/dcmitype/StillImage" />
        <dc:title></dc:title>
      </cc:Work>
    </rdf:RDF>
  </metadata>
  <g
     inkscape:label="1. réteg"
     inkscape:groupmode="layer"
     id="layer1"
     transform="translate(0,-662.59843)">
    <path
       style="fill:#436e64;fill-opacity:1;stroke:none"
       d="m 80.216294,957.5913 -50.624999,0 0,-134.375 0,-134.375 75.576815,0 75.57682,0 1.24755,4.6875 c 0.68615,2.57812 8.25707,33.65625 16.82425,69.0625 8.56719,35.40625 19.04314,78.57812 23.27989,95.9375 l 7.70316,31.5625 0.83326,-0.006 0.83325,-0.006 24.31334,-100.61819 24.31335,-100.61931 74.74915,0 74.74916,0 0,134.375 0,134.375 -49.375,0 -49.375,0 0,-73.75 0,-73.75 -1.00921,0 -1.00921,0 -19.846,73.75 -19.84599,73.75 -58.42286,0 -58.42285,0 -1.28359,-4.0625 c -0.70598,-2.23438 -6.42909,-23.1875 -12.71801,-46.5625 -6.28894,-23.375 -12.42953,-46.15625 -13.64576,-50.625 -1.21624,-4.46875 -4.34906,-16.28125 -6.96184,-26.25 -2.61278,-9.96875 -5.21944,-18.65938 -5.79259,-19.3125 l -1.04209,-1.1875 0,74 0,74 -50.624996,0 z"
       id="path4149"
       inkscape:connector-curvature="0"
       sodipodi:nodetypes="ccccccssscccccccccccccccccccsssssccccc" />
    <path
       style="fill:#29b473;fill-opacity:1;stroke:none"
       d="m 189.62347,1030.1571 c -13.7372,1.0356 -23.4045,-11.5729 -22.95655,-22.3586 -0.0686,-12.30085 11.08919,-21.85648 22.95655,-22.05239 13.35338,0.14968 22.65351,9.67463 22.99153,22.05239 -0.0726,12.6715 -10.56716,22.2341 -22.99153,22.3586 z m 9.5361,-22.3586 c 0.0535,-5.5633 -3.91492,-9.52284 -9.5361,-9.52284 -5.78493,0.10576 -8.90643,3.62054 -9.1742,9.52284 -0.28876,6.4009 2.95594,9.863 9.0076,10.8542 7.0293,-0.9866 9.90191,-5.4341 9.7027,-10.8542 z m -159.883343,21.7272 -7.61666,0 0,-21.25 0,-21.25004 6.89438,0 6.89437,0 6.38422,8.75 c 3.51131,4.81254 6.5431,8.75004 6.7373,8.75004 0.1942,0 3.27208,-3.9375 6.839726,-8.75004 l 6.48666,-8.75 6.75668,0 6.756671,0 0,21.25004 0,21.25 -7.187501,0 -7.1875,0 c -0.03888,-8.8462 0.04978,-15.0989 0,-24.6996 l -6.16706,8.7452 -6.167056,8.418 -5.70794,-8.0484 c -3.13937,-4.4265 -7.099024,-9.0813 -7.696404,-9.1148 0.06097,8.5697 -0.221939,17.5256 0,24.6946 l -6.019886,0 z m 275.508343,0 -21.875,0 0,-0.6619 c 0,-0.364 4.64063,-7.5359 10.3125,-15.9375 5.67188,-8.4016 10.5,-15.69751 10.72916,-16.21314 l 0.41668,-0.9375 -11.97918,0 -10.81218,0 0,-4.375 0,-4.375 21.98012,0 23.14709,0 -11.29419,16.87504 -11.29419,16.875 11.27209,0 11.2721,0 0,4.375 0,4.375 z m 108.75,0 -6.875,0 0,-21.25 0,-21.25004 6.875,0 6.875,0 0,21.25004 0,21.25 z m 39.37978,-18.9101 -2.50478,1.715 0,-152.57492 0,-152.57495 17.1875,12.80558 c 9.45313,7.04306 54.875,40.55457 100.9375,74.47003 46.0625,33.91544 84.70366,62.57116 85.86924,63.67939 l 2.11924,2.01495 -100.55197,74.37499 c -55.30358,40.90625 -101.67912,75.14673 -103.05673,76.08993 z m 73.12022,-102.33994 16.875,0 0,-15.62499 0,-15.625 16.25,0 16.25,0 0,-16.875 0,-16.875 -16.25,0 -16.25,0 0,-16.25 0,-16.25 -16.875,0 -16.875,0 0,16.25 0,16.25 -16.25,0 -16.25,0 0,16.875 0,16.875 16.25,0 16.25,0 0,15.625 0,15.62499 z"
       id="path4149-4"
       inkscape:connector-curvature="0"
       sodipodi:nodetypes="ccccccccccccccccsssccccccccccsccccccssccccccccccccccccccccccccscccssscssccccccccccccccccccccccccc" />
  </g>
</svg>
