<?xml version="1.0" encoding="UTF-8"?>
<!-- Generator: Adobe Illustrator 27.9.0, SVG Export Plug-In . SVG Version: 6.00 Build 0)  -->
<svg version="1.1" id="Layer_1" xmlns="http://www.w3.org/2000/svg" xmlns:xlink="http://www.w3.org/1999/xlink" x="0px" y="0px" width="2811px" height="2380px" viewBox="0 0 2811 2380" style="enable-background:new 0 0 2811 2380;" xml:space="preserve">
<style type="text/css">
	.st0{fill:#3DEEAB;}
	.st1{fill:#FF6700;}
</style>
<g id="Layer_1_00000108990828583158725810000018295516452237731764_">
	<g>
		<path id="path367_00000087370888598716583860000005666536122575757229_" class="st0" d="M1427,1074.2c17.3,0,32,6.1,44.1,18.2    c12.1,12.2,18.2,26.6,18.2,44.2s-6,32.4-18.2,44.7c-12.1,12.2-26.9,18.2-44.4,18.2h-35.5l0.3,190.8h-125.3v-190.8h-35.5    c-17.3,0-32-6.1-44.1-18.2c-12.3-12.3-18.5-27.2-18.5-44.5s6-32.1,18.2-44.4c12.1-12.2,26.9-18.2,44.4-18.2L1427,1074.2    L1427,1074.2z"/>
		<path id="path365_00000153674821948740605260000016224400205124996287_" class="st0" d="M2342.7,1072.7    c45.9,0,84.9,16.2,117.3,48.5c32.2,32,48.5,70.9,48.5,117v152.2h-125.6v-149.7c0-17.7-3.9-32.8-11.7-45.4    c-7.8-12.5-17.3-18.8-28.4-18.8s-20.3,6.3-28.1,18.8s-11.7,27.7-11.7,45.4v149.7h-125.6v-152.2c0-46.1,16.3-84.9,48.5-117    C2258,1089,2296.8,1072.7,2342.7,1072.7L2342.7,1072.7L2342.7,1072.7z"/>
		<path id="path363_00000047749457768943593190000011591227437660739717_" class="st0" d="M2714.4,1214.3    c60.9,27,91.4,57.8,91.4,92.6c0,26.1-11.8,49.3-35.5,69.4c-25.3,21.4-56.3,32.1-92.9,32.1c-42.4,0-77-12.4-104-37    c-24.9-22.7-37.3-49.4-37.3-80.3H2638c0,8.9,1.9,17,5.5,24.4c6.2,12.5,16.2,18.8,30.2,18.8c4.5,0,8.9-1.5,13.3-4.3    c5.3-3.4,8-7.9,8-15.3s-6.3-14.6-18.8-21.4c-2.9-1.6-20.9-9.9-54-24.7c-60.7-27-91-57.8-91-92.6c0-26.1,11.8-49.3,35.5-69.4    c25.1-21.4,56.1-32.1,92.9-32.1c42.2,0,76.9,12.3,104,37c24.7,22.6,37,49.4,37,80.3h-101.9c0-8.6-1.6-16.6-5.2-23.8    c-6-11.8-16.4-17.6-30.5-17.6c-4.7,0-9,1.3-13,3.4c-5.7,3-8.6,7.4-8.4,14.8c0.2,7.3,6.6,14.6,18.9,21.4    C2663.5,1191.6,2681.5,1199.7,2714.4,1214.3L2714.4,1214.3L2714.4,1214.3z"/>
		<path id="path361_00000078762434151423573690000007659849901627464114_" class="st0" d="M1653.2,1074.2    c-91.7,0-165.9,74.3-165.9,165.8s74.2,165.8,165.9,165.8s165.9-74.3,165.9-165.8C1819.1,1148.4,1744.9,1074.2,1653.2,1074.2    L1653.2,1074.2z M1653.2,1165.6c22.2,0,39.7,33.6,39.7,74.3s-17.6,74.3-39.7,74.3s-39.7-33.6-39.7-74.3S1631,1165.6,1653.2,1165.6    z"/>
		<path id="path357_00000157274688574445724460000017399799965148253578_" class="st0" d="M1994.3,1074.1    c-91.7,0-165.9,74.3-165.9,165.8s74.2,165.8,165.9,165.8c91.7,0,165.9-74.3,165.9-165.8C2160.1,1148.4,2086,1074.1,1994.3,1074.1z     M1994.3,1165.6c22.2,0,39.7,33.6,39.7,74.3c0,40.7-17.6,74.3-39.7,74.3s-39.7-33.6-39.7-74.3    C1954.5,1199.2,1972.1,1165.6,1994.3,1165.6z"/>
		<path id="path377_00000034807118803531405840000000257931697823418789_" class="st1" d="M666.5,1073.2    c-45.8,0-87.8,18.9-117.5,48.7c-29.8,29.8-48.5,72.2-48.1,117.7s18.3,87.9,48.1,117.7c22.9,22.8,62.6,48.6,117.5,48.6    c40.5,0,78.5-15.1,107.6-40c21.2-18.2,51.9-54.1,58-110.7H705.4c-1.5,14.1-5.3,26.7-10.7,36.9c-7.6,14.2-16.8,22-28.2,22    s-20.6-7.9-28.2-22c-7.6-14.1-11.4-32.2-11.4-52.6s4.4-39.3,11.4-52.6c7.5-14.2,16.8-22,28.2-22s20.7,7.8,28.2,22    c5.4,10.2,9.2,22.8,10.7,36.9h125.9c-3.8-39.2-21.4-75.3-48.1-102C753.5,1092,711.5,1073.1,666.5,1073.2L666.5,1073.2    L666.5,1073.2z"/>
		<path id="path375_00000150819093768537963860000008277799477421681594_" class="st1" d="M168,1073.2c-45.8,0-87.6,19-116.8,48.7    c-29.6,30-48.8,71.4-48.8,116.9v151.5h125.9v-148.4c0-18,4.3-33.9,11.4-45.5c7.3-11.9,16.8-18.8,28.2-18.8s20.6,7,28.3,18.8    c7.6,11.8,11.4,27.5,11.4,45.5v148.4h125.9v-151.5c0-45.5-18.7-87.5-48.8-117.7C255.4,1091.6,213.8,1073.2,168,1073.2L168,1073.2z    "/>
		<path id="path373_00000165928264603410222570000009446202145013902988_" class="st1" d="M1091,1069.8    c-22.3-0.9-44.9,10.1-56.6,30.9l-57.2,102v-68.3c0-34.5-28.2-62.8-62.6-62.8c-34.4,0-62.6,28.3-62.6,62.8v255.8h125.9v-99.7    l66.4,99.7h101.5c11.5,0,20.6-9.4,20.6-22c0-3.9-0.7-8.2-3.1-11.8l-68.7-104.4l48.1-87.1c16.7-30.3,7.6-68.9-22.1-86.3    C1111.3,1073.2,1101.2,1070.2,1091,1069.8L1091,1069.8L1091,1069.8z"/>
		<path id="path4094-1_00000093159367918678521060000017797601092738375048_" class="st1" d="M419.9,913.1    c-19.1,0-36.6,7.9-49.6,20.4s-20.6,30.6-20.6,49.5s8,36.5,20.6,49.5l15.3,15.7c25.6,26.3,27.1,32.6,3.1,57.3l-13.7,14.1    c-11.4,11.8-18.3,27.5-18.3,44.7v226h126.7v-226c0-17.3-7.3-33.3-18.3-44.7l-13.7-14.1c-24.4-25.1-22.5-31,3.1-57.3l15.3-15.7    c12.6-12.9,20.6-29.8,20.6-49.5s-7.6-36.9-20.6-49.5C456.5,921,439.7,913.1,419.9,913.1L419.9,913.1z"/>
	</g>
</g>
<g id="Layer_2_00000012451354558991932790000008419951710796496053_">
	<path class="st1" d="M321.8,828.2c-0.1,0-0.2,0-0.3,0c-45.9,0-89.1-17.9-121.6-50.3c-32.6-32.5-50.5-75.7-50.6-121.7   c0-46,18-89.3,50.6-121.8c32.5-32.4,75.7-50.3,121.6-50.3c0.1,0,0.2,0,0.4,0c45.9,0,89.1,17.9,121.6,50.3   c32.6,32.5,50.5,75.7,50.6,121.7v0.1c0,46-18,89.2-50.6,121.7C410.9,810.3,367.7,828.2,321.8,828.2z M321.6,776.6h0.1   c32.2,0,62.5-12.5,85.2-35.2c22.8-22.7,35.4-53,35.4-85.2s-12.6-62.5-35.4-85.2s-53-35.2-85.2-35.2c-0.1,0-0.2,0-0.2,0   c-66.5,0-120.6,54-120.6,120.5c0,32.2,12.6,62.4,35.4,85.2c22.8,22.7,53,35.2,85.2,35.2C321.5,776.6,321.5,776.6,321.6,776.6z"/>
	<g>
		<path class="st1" d="M689.5,1021.7L689.5,1021.7c14.8,1.3,27.6-10.1,28.1-25c0.1-3.2,0.1-6.4,0.2-9.5    c0.3-67.6-17.2-132.6-52-193.3c-34.8-60.7-49.9-112.3-47.7-162.6c2.7-62.2,27.7-121.4,70.2-166.8c42-44.9,98.6-73.7,159.4-81    l0.8-0.1c140.1-21.6,219.9-123.5,290.2-213.4l0.8-1.1c51.5-73.5,135.8-115,225.5-111c69.7,3.1,134.1,33.1,181.3,84.6    c47.1,51.5,71.4,118.2,68.3,187.9c-2.3,52.8-22.9,105.5-61,156.7c-46.6,62.4-69.1,122.5-68.9,183.7c0.2,66.8,31.6,134,88.4,189.3    c53.8,52.4,123.7,86.6,191.9,93.8c85,9,204.9-9.8,281.1-72.3c84.4-69.4,126.1-85.7,212.1-83c61.4,2,115.5,26.8,156.4,71.7    c45.1,49.5,69.5,120.2,65.2,189.2c0,0.4-0.1,0.9-0.1,1.3c-0.9,13.9,9.3,26.1,23.2,27.4l0,0c14.5,1.4,27.3-9.4,28.2-23.9    c0-0.6,0.1-1.1,0.1-1.7c5.1-83.8-23.5-166.6-78.6-227.1c-50.5-55.4-117.2-86-192.9-88.5c-99.3-3.2-152.3,17.2-246.5,94.7    c-64.2,52.8-170.9,68.5-242.8,60.9c-56.9-6-115.7-35-161.3-79.5c-46.1-44.9-72.6-100.5-72.8-152.6c-0.2-49.6,19-99.5,58.7-152.6    c44.4-59.6,68.4-121.9,71.2-185.2c3.7-83.5-25.4-163.4-81.8-225c-56.5-61.6-133.5-97.6-217-101.2    c-107.2-4.8-207.9,44.7-269.7,132.4C1030.3,225,960.5,314,841.1,332.5c-72.6,8.9-140.2,43.3-190.4,97    c-50.9,54.4-80.7,125.3-84,199.8c-3.5,79.4,29.4,146.7,54.5,190.5c31.8,55.5,46.9,115.2,45.1,175.8    C665.7,1008.9,675.9,1020.4,689.5,1021.7z"/>
		<path class="st1" d="M1942.2,1823.1c-76.6-78.7-101.5-158.3-74.1-236.7c12.6-36.1,35.7-69.6,64.6-99.4c10.6-10.9,9.7-28.5-2-38.2    l0,0c-10.4-8.7-25.8-7.8-35.2,1.9c-43,44.4-65,86.6-76.2,118.6c-24,68.6-27.9,175.2,89.6,293.6l2.6,2.6    c44.4,46.1,89.6,128.9,86.2,205.4c-6.4,144.1-129.1,256.2-273.5,249.8c-65.4-2.9-127-29.8-173.3-75.8    c-46.1-45.7-73.4-106.3-76.9-170.8l-0.1-1.5c-18.2-160.4-128.1-287.4-301.5-348.2c-68.1-23.9-142.8-36.1-217.5-36.1    c-35.4,0-70.8,2.8-105.5,8.3c-114.4,18.3-211.6,64.6-281.1,133.8l-0.9,1c-51.9,57.3-126.4,88.1-204.4,84.7    c-69.8-3.1-134.2-33.1-181.3-84.5c-47.1-51.5-71.4-118.2-68.3-187.9c2.6-60.2,31.4-115.9,75-154.2c11.6-10.2,11.6-28.4,0-38.7l0,0    c-9.8-8.7-24.5-8.7-34.3-0.1c-9.4,8.2-18.3,17.2-26.5,26.8c-39.7,46.1-63.1,104.3-65.7,163.9c-3.7,83.5,25.4,163.4,81.8,225    c56.5,61.6,133.6,97.6,217.1,101.2c93.1,4.1,182.2-32.7,244.4-101.1c123.7-122.7,354.9-162,550.2-93.5    c72.6,25.5,134.8,64.8,180.1,113.9c49.4,53.6,78.7,117.7,87.1,190.8c4.4,76.9,37.1,149.2,92.1,203.8    c55.5,55.1,129.2,87.3,207.4,90.7c4.7,0.2,9.3,0.3,14,0.3c166.7,0,305.9-131.6,313.3-299.4c4.1-94-49.1-191.5-103.7-246.6    L1942.2,1823.1z"/>
	</g>
</g>
</svg>