<svg width="680" height="229" xmlns="http://www.w3.org/2000/svg" version="1.1" xml:space="preserve">
 <title>RTL Otthon (2024)</title>

 <g>
  <title>Layer 1</title>
  <g id="svg_2">
   <g id="svg_17" stroke="null">
    <g id="svg_16" stroke="null">
     <g id="svg_5" stroke="null">
      <path d="m179.94465,193.94412c0,-15.19991 -8.35532,-24.43907 -21.97141,-24.43907c-13.61608,0 -21.97141,9.23916 -21.97141,24.43907c0,15.0509 8.35533,24.43908 21.97141,24.43908c13.61609,0 21.97141,-9.38818 21.97141,-24.43908m-56.63054,0c0,-21.16066 13.92554,-35.46647 34.65913,-35.46647c20.73358,0 34.65914,14.30581 34.65914,35.46647c0,21.16067 -13.92556,35.46648 -34.65914,35.46648c-20.73359,0 -34.65913,-14.30581 -34.65913,-35.46648" fill="#000000" id="svg_4" stroke="null"/>
     </g>
     <g id="svg_7" stroke="null">
      <path d="m224.79438,228.36746l0,-57.96831l-21.3525,0l0,-10.87837l55.238,0l0,10.87837l-21.19778,0l0,57.96831l-12.68772,0z" fill="#000000" id="svg_6" stroke="null"/>
     </g>
     <g id="svg_9" stroke="null">
      <path d="m288.61579,228.36746l0,-57.96831l-21.3525,0l0,-10.87837l55.238,0l0,10.87837l-21.35251,0l0,57.96831l-12.53299,0z" fill="#000000" id="svg_8" stroke="null"/>
     </g>
     <g id="svg_11" stroke="null">
      <path d="m382.51639,159.52078l12.53299,0l0,68.84667l-12.53299,0l0,-30.10179l-32.80239,0l0,30.10179l-12.533,0l0,-68.84667l12.533,0l0,27.86651l32.80239,0l0,-27.86651z" fill="#000000" id="svg_10" stroke="null"/>
     </g>
     <g id="svg_13" stroke="null">
      <path d="m468.32469,193.94412c0,-15.19991 -8.35532,-24.43908 -21.97141,-24.43908c-13.61609,0 -21.97142,9.23917 -21.97142,24.43908c0,15.05089 8.35533,24.43907 21.97142,24.43907c13.61609,0 21.97141,-9.38818 21.97141,-24.43907m-56.63054,0c0,-21.16066 13.92554,-35.46647 34.65913,-35.46647c20.73358,0 34.65913,14.30581 34.65913,35.46647c0,21.16067 -13.92555,35.46647 -34.65913,35.46647c-20.73359,0 -34.65913,-14.3058 -34.65913,-35.46647" fill="#000000" id="svg_12" stroke="null"/>
     </g>
     <g id="svg_15" stroke="null">
      <path d="m497.73454,228.36747l0,-68.84668l14.54445,0l31.40984,49.77228l0.46419,0l0,-49.77228l12.533,0l0,68.84668l-14.54446,0l-31.40985,-49.47423l-0.46418,0l0,49.47423l-12.53299,0z" fill="#000000" id="svg_14" stroke="null"/>
     </g>
    </g>
   </g>
   <g id="svg_24">
    <path fill="#EDD3AE" d="m679.99999,119.65166l0,-119.65167l-212.5141,0l0,119.65167l212.5141,0z" id="svg_18"/>
    <path fill="#ffffff" d="m533.53089,92.15416l0,-64.64251l14.7475,0l0,51.89251l65.6766,0l0,12.75l-80.4241,0z" id="svg_19"/>
    <path fill="#ACD8A7" d="m446.24999,119.65166l0,-119.65167l-212.51415,0l0,119.65167l212.51415,0z" id="svg_20"/>
    <path fill="#ffffff" d="m295.26168,40.24749l0,-12.73584l89.47666,0l0,12.73584l-37.3575,0l0,51.90667l-14.76166,0l0,-51.90667l-37.3575,0z" id="svg_21"/>
    <path fill="#33BAB1" d="m212.51417,119.65166l0,-119.65167l-212.51417,0l0,119.65167l212.51417,0z" id="svg_22"/>
    <path fill="#ffffff" id="svg_23" d="m115.06665,57.42734c9.1334,0 13.55832,-2.95501 13.55832,-8.95965c0,-6.00034 -4.42493,-8.86502 -13.55832,-8.86502l-39.94036,0l0,17.82467l39.94036,0zm-54.69729,-29.91998l56.6348,0c17.24864,0 26.84171,7.75528 26.84171,20.77537c0,11.17483 -7.19588,18.65483 -19.4611,20.40977l27.76106,23.4594l-21.30839,0l-26.10279,-22.62495l-29.60836,0l0,22.62495l-14.75693,0l0,-64.64454z"/>
   </g>
  </g>
 </g>
</svg>