<?xml version="1.0" encoding="utf-8"?>
<!-- Generator: Adobe Illustrator 24.2.1, SVG Export Plug-In . SVG Version: 6.00 Build 0)  -->
<svg version="1.1"
	 id="Слой_1" xmlns:cc="http://creativecommons.org/ns#" xmlns:dc="http://purl.org/dc/elements/1.1/" xmlns:rdf="http://www.w3.org/1999/02/22-rdf-syntax-ns#"
	 xmlns="http://www.w3.org/2000/svg" xmlns:xlink="http://www.w3.org/1999/xlink" x="0px" y="0px" viewBox="0 0 512 147.6"
	 style="enable-background:new 0 0 512 147.6;" xml:space="preserve">
<style type="text/css">
	.st0{fill:url(#SVGID_1_);}
	.st1{fill:url(#SVGID_2_);}
	.st2{fill:url(#SVGID_3_);}
	.st3{fill:url(#SVGID_4_);}
	.st4{fill:url(#SVGID_5_);}
	.st5{fill:url(#SVGID_6_);}
	.st6{fill:url(#SVGID_7_);}
	.st7{fill:url(#SVGID_8_);}
	.st8{fill:url(#SVGID_9_);}
	.st9{fill:url(#SVGID_10_);}
	.st10{fill:url(#SVGID_11_);}
	.st11{fill:url(#SVGID_12_);}
</style>
<g>
	<linearGradient id="SVGID_1_" gradientUnits="userSpaceOnUse" x1="45.5039" y1="0.3734" x2="45.5039" y2="147.5942">
		<stop  offset="0" style="stop-color:#FE4B01"/>
		<stop  offset="1" style="stop-color:#FFAE01"/>
	</linearGradient>
	<path class="st0" d="M11.4,0.4c-3.1,0-5.8,1.1-8,3.3C1.1,5.9,0,8.7,0,11.8v124.4c0,3.2,1.1,5.9,3.4,8c2.3,2.3,4.9,3.4,8,3.4h0.3
		c3.1,0,5.8-1.2,8-3.4c2.3-2.2,3.4-4.8,3.4-8V84.6c0-6.2,2.2-11.5,6.5-16c4.4-4.4,9.7-6.6,16-6.6c6.2,0,11.5,2.2,15.9,6.6
		c4.3,4.4,6.5,9.7,6.5,16v51.6c0,3.2,1.1,5.9,3.4,8c2.3,2.3,5,3.4,8.1,3.4h0.2c3.2,0,5.9-1.2,8-3.4c2.3-2.2,3.4-4.8,3.4-8V84.6
		c0-12.5-4.4-23.3-13.4-32.3C68.7,43.4,58,39,45.5,39c-10,0-17.5,1.9-22.4,5.6V11.8c0-3.1-1.1-5.9-3.4-8.1c-2.3-2.2-4.9-3.3-8-3.3
		L11.4,0.4"/>
	<linearGradient id="SVGID_2_" gradientUnits="userSpaceOnUse" x1="161.3394" y1="39" x2="161.3394" y2="147.5988">
		<stop  offset="0" style="stop-color:#FE6700"/>
		<stop  offset="1" style="stop-color:#FFAE01"/>
	</linearGradient>
	<path class="st1" d="M161.3,62.3c8.6,0,15.9,3,22.1,9.2c6.1,6.1,9.1,13.5,9.1,22.2c0,8.6-3,16-9.1,22.1c-6.1,6.1-13.5,9.1-22.1,9.1
		c-8.7,0-16-3-22.2-9.1c-6-6.1-9-13.5-9-22.1c0-8.7,3-16,9-22.2C145.3,65.3,152.7,62.3,161.3,62.3z M161.3,39
		c-15,0-27.7,5.3-38.4,15.9c-10.6,10.7-15.9,23.4-15.9,38.4c0,15,5.3,27.8,15.9,38.4c10.6,10.6,23.4,15.9,38.4,15.9
		c15,0,27.7-5.3,38.4-15.9c10.6-10.6,15.9-23.4,15.9-38.4c0-15-5.3-27.7-15.9-38.4C189.1,44.3,176.3,39,161.3,39"/>
	<linearGradient id="SVGID_3_" gradientUnits="userSpaceOnUse" x1="310.7603" y1="39" x2="310.7603" y2="147.599">
		<stop  offset="0" style="stop-color:#FE6700"/>
		<stop  offset="1" style="stop-color:#FFAE01"/>
	</linearGradient>
	<path class="st2" d="M254.8,84.3c0-6.1,2.2-11.4,6.5-15.8s9.6-6.5,15.7-6.5c6.1,0,11.4,2.2,15.7,6.5s6.5,9.6,6.5,15.8v51.8
		c0,3.2,1.1,5.9,3.4,8c2.3,2.3,5,3.4,8.1,3.4h0.2c3.2,0,5.9-1.2,8-3.4c2.3-2.2,3.4-4.8,3.4-8V84.3c0-6.1,2.2-11.4,6.5-15.8
		c4.3-4.3,9.6-6.5,15.8-6.5c6.2,0,11.5,2.2,15.9,6.5s6.5,9.6,6.5,15.8v51.8c0,3.2,1.1,5.9,3.4,8c2.2,2.3,4.8,3.4,8,3.4h0.2
		c3.1,0,5.8-1.2,8.1-3.4c2.2-2.2,3.3-4.9,3.3-8V84.3c0-12.4-4.4-23.1-13.3-32.1c-8.8-8.8-19.5-13.3-32-13.3c-15,0-26.2,5-33.8,14.9
		C303.2,44,292,39,277,39c-12.5,0-23.2,4.4-32,13.3c-8.8,9-13.3,19.6-13.3,32.1v51.8c0,3.2,1.1,5.9,3.4,8c2.3,2.3,4.9,3.4,8,3.4h0.3
		c3.1,0,5.8-1.2,8-3.4c2.3-2.2,3.4-4.8,3.4-8L254.8,84.3"/>
	<linearGradient id="SVGID_4_" gradientUnits="userSpaceOnUse" x1="458.9007" y1="39" x2="458.9007" y2="147.5988">
		<stop  offset="0" style="stop-color:#FE6700"/>
		<stop  offset="1" style="stop-color:#FFAE01"/>
	</linearGradient>
	<path class="st3" d="M460,62.3c9.7,0,16.9,2.7,21.5,8.3l-52.6,23.7v-0.7c0-8.7,3-16,9-22.2C444,65.3,451.3,62.3,460,62.3L460,62.3z
		 M509.3,70.7c-4.2-9.4-10.8-17.1-19.7-22.8c-8.9-5.9-18.7-8.9-29.6-8.9c-15,0-27.7,5.3-38.3,15.9c-10.6,10.7-15.9,23.4-15.9,38.4
		c0,15,5.3,27.8,15.9,38.4c10.6,10.6,23.4,15.9,38.4,15.9c11.7,0,22.2-3.4,31.6-10.3c9.3-6.6,15.8-15.2,19.5-26
		c0.5-1.4,0.7-2.7,0.7-4.1c0-2.2-0.7-4.3-2.2-6.3c-2.4-3.3-5.5-4.9-9.3-4.9c-5.5,0-9.2,2.6-10.9,7.8c-2.2,6.1-5.9,11.2-11.2,15.1
		c-5.5,4-11.6,5.9-18.3,5.9c-10.1,0-17.5-3-22.3-9c3.1-1.4,13.5-6.2,31.3-14.2l34.7-15.7c2.9-1.3,5-3.5,6-6.4c0.5-1.3,0.7-2.6,0.7-4
		C510.4,73.9,510,72.3,509.3,70.7"/>
	<linearGradient id="SVGID_5_" gradientUnits="userSpaceOnUse" x1="118.4969" y1="0" x2="118.4969" y2="27.7848">
		<stop  offset="0" style="stop-color:#FF5E07"/>
		<stop  offset="1" style="stop-color:#FFA300"/>
	</linearGradient>
	<path class="st4" d="M119.6,27.8c6.3,0,10.8-3,10.8-7.6v-0.1c0-4.1-3.2-6.3-10.3-7.6c-6.9-1.3-8.6-2.7-8.6-5.2V7.1
		c0-2.4,2.6-4.4,6.7-4.4c3.2,0,6.2,0.9,9.1,2.9l2.1-2.4c-3.2-2.2-6.5-3.3-11.1-3.3c-6,0-10.4,3.1-10.4,7.4v0.1
		c0,4.4,3.3,6.4,10.6,7.8c6.6,1.2,8.2,2.6,8.2,5.1v0.1c0,2.7-2.8,4.6-7,4.6c-4.4,0-7.5-1.3-10.8-3.8l-2.2,2.2
		C110.5,26.4,114.6,27.8,119.6,27.8"/>
	<linearGradient id="SVGID_6_" gradientUnits="userSpaceOnUse" x1="171.6753" y1="0.3849" x2="171.6753" y2="27.3989">
		<stop  offset="0" style="stop-color:#FF5E07"/>
		<stop  offset="1" style="stop-color:#FFA300"/>
	</linearGradient>
	<path class="st5" d="M159.9,27.4h3.6v-9.5h7.7c6.7,0,12.4-3,12.4-8.8V9c0-5.3-4.7-8.6-11.8-8.6h-11.8V27.4z M163.4,15.1V3.2h8
		c5.1,0,8.5,2,8.5,5.9v0.1c0,3.6-3.4,5.9-8.6,5.9L163.4,15.1"/>
	<linearGradient id="SVGID_7_" gradientUnits="userSpaceOnUse" x1="223.7785" y1="0.3849" x2="223.7785" y2="27.3989">
		<stop  offset="0" style="stop-color:#FF5E07"/>
		<stop  offset="1" style="stop-color:#FFA300"/>
	</linearGradient>
	<path class="st6" d="M212.3,27.4h23v-2.8h-19.5v-9.5H233v-2.8h-17.2V3.2h19.2V0.4h-22.8V27.4"/>
	<linearGradient id="SVGID_8_" gradientUnits="userSpaceOnUse" x1="278.1652" y1="0.3849" x2="278.1652" y2="27.3989">
		<stop  offset="0" style="stop-color:#FF5E07"/>
		<stop  offset="1" style="stop-color:#FFA300"/>
	</linearGradient>
	<path class="st7" d="M264.7,27.4h3.6v-7.3l6.7-5.8l12.1,13.1h4.5l-14.1-15.2L291,0.4h-4.6l-18.1,16.1V0.4h-3.6L264.7,27.4"/>
	<linearGradient id="SVGID_9_" gradientUnits="userSpaceOnUse" x1="329.1068" y1="0.3849" x2="329.1068" y2="27.3989">
		<stop  offset="0" style="stop-color:#FF5E07"/>
		<stop  offset="1" style="stop-color:#FFA300"/>
	</linearGradient>
	<path class="st8" d="M327.3,27.4h3.6V3.2h10.6V0.4h-24.8v2.8h10.6V27.4"/>
	<linearGradient id="SVGID_10_" gradientUnits="userSpaceOnUse" x1="383.509" y1="0.3849" x2="383.509" y2="27.3989">
		<stop  offset="0" style="stop-color:#FF5E07"/>
		<stop  offset="1" style="stop-color:#FFA300"/>
	</linearGradient>
	<path class="st9" d="M370.5,27.4h3.6V16.9h9l9.1,10.5h4.4l-9.7-11c5-0.8,8.6-3.4,8.6-7.9V8.4c0-2.1-0.9-4-2.4-5.3
		c-2-1.7-5.1-2.7-9-2.7h-13.6V27.4z M374,14.2v-11h9.7c5.1,0,8.1,2,8.1,5.3v0.1c0,3.5-3.4,5.6-8.1,5.6H374"/>
	<linearGradient id="SVGID_11_" gradientUnits="userSpaceOnUse" x1="437.9657" y1="0.3849" x2="437.9657" y2="27.8234">
		<stop  offset="0" style="stop-color:#FF5E07"/>
		<stop  offset="1" style="stop-color:#FFA300"/>
	</linearGradient>
	<path class="st10" d="M437.9,27.8c7.9,0,13.2-4.1,13.2-12V0.4h-3.6v15.7c0,5.9-3.7,8.9-9.5,8.9c-6,0-9.6-3.3-9.6-9.1V0.4h-3.6v15.7
		C424.8,23.7,430.1,27.8,437.9,27.8"/>
	<linearGradient id="SVGID_12_" gradientUnits="userSpaceOnUse" x1="496.9099" y1="0.3849" x2="496.9099" y2="27.3989">
		<stop  offset="0" style="stop-color:#FF5E07"/>
		<stop  offset="1" style="stop-color:#FFA300"/>
	</linearGradient>
	<path class="st11" d="M481.8,27.4h3.5V5.6L496.8,20h0.2l11.5-14.5v21.9h3.6v-27h-3.6l-11.5,14.7L485.4,0.4h-3.6L481.8,27.4"/>
</g>
</svg>
