<?xml version="1.0" encoding="utf-8"?>
<!-- Generator: Adobe Illustrator 24.2.1, SVG Export Plug-In . SVG Version: 6.00 Build 0)  -->
<svg version="1.1"
	 id="Слой_1" xmlns:cc="http://creativecommons.org/ns#" xmlns:dc="http://purl.org/dc/elements/1.1/" xmlns:rdf="http://www.w3.org/1999/02/22-rdf-syntax-ns#"
	 xmlns="http://www.w3.org/2000/svg" xmlns:xlink="http://www.w3.org/1999/xlink" x="0px" y="0px" viewBox="0 0 512 388.6"
	 style="enable-background:new 0 0 512 388.6;" xml:space="preserve">
<style type="text/css">
	.st0{fill:#840B17;}
</style>
<g>
	<g>
		<g transform="translate(510.47 240.98)">
			<path class="st0" d="M-14.7-59h-69.5v4.6h69.5c6.4,0,11.6,5.2,11.6,11.6v174.2c0,6.4-5.2,11.6-11.6,11.6h-479.6
				c-6.4,0-11.6-5.2-11.6-11.6V-42.8c0-6.4,5.2-11.6,11.6-11.6h65.9V-59h-65.9c-8.9,0-16.2,7.3-16.2,16.2v174.2
				c0,8.9,7.3,16.2,16.2,16.2h479.6c8.9,0,16.2-7.3,16.2-16.2V-42.8C1.5-51.7-5.7-59-14.7-59"/>
		</g>
		<g transform="translate(132.61 183.71)">
			<path class="st0" d="M-74,64.5h-21.4V45.9h63.3v18.6h-21.4v111.8H-74V64.5z"/>
		</g>
		<g transform="translate(173.34 199.81)">
			<path class="st0" d="M-67.6,29.8h20.7l13.4,101.1h0.4l13.4-101.1h18.8l-19.7,130.4h-27.2L-67.6,29.8z"/>
		</g>
		<g transform="translate(239.18 99.357)">
			<path class="st0" d="M-57.3,246.5c0-9.3,1.5-17.3,4.5-23.9c3-6.6,8.3-14,16-22.1c7.6-8.1,12.8-15,15.7-20.7
				c2.9-5.7,4.4-11.7,4.4-17.9c0-5.6-0.9-9.5-2.7-11.6c-1.8-2.2-4.4-3.3-7.9-3.3c-7.1,0-10.6,4.3-10.6,12.9v14h-19.4v-12.7
				c0-10.6,2.6-18.7,7.8-24.3c5.2-5.6,12.8-8.5,22.7-8.5c9.9,0,17.5,2.8,22.7,8.5c5.2,5.7,7.8,13.8,7.8,24.3
				c0,7.9-1.9,15.7-5.7,23.3c-3.8,7.6-10.3,16.3-19.7,26.1c-6.1,6.5-10.2,11.7-12.3,15.7c-2.1,4-3.2,8.4-3.2,12.9v2.8H2v18.6h-59.2
				V246.5z"/>
		</g>
		<g transform="translate(333.19 92.837)">
			<path class="st0" d="M-42.5,260.5c-5.1-5.6-7.6-13.8-7.6-24.3v-7.4h19.4v8.9c0,8.4,3.5,12.7,10.6,12.7c3.5,0,6.1-1,7.9-3.1
				c1.8-2,2.7-5.4,2.7-10c0-5.5-1.2-10.3-3.7-14.4c-2.5-4.2-7.1-9.2-13.8-15c-8.4-7.4-14.3-14.2-17.7-20.2c-3.4-6-5-12.8-5-20.4
				c0-10.3,2.6-18.3,7.8-23.9c5.2-5.6,12.8-8.5,22.7-8.5c9.8,0,17.2,2.8,22.3,8.5c5,5.7,7.5,13.8,7.5,24.3v5.4H-8.8v-6.7
				c0-4.5-0.9-7.7-2.6-9.8c-1.7-2-4.3-3.1-7.6-3.1c-6.8,0-10.2,4.2-10.2,12.5c0,4.7,1.3,9.1,3.8,13.2c2.5,4.1,7.2,9.1,13.9,14.9
				c8.6,7.5,14.5,14.2,17.7,20.3c3.2,6.1,4.8,13.2,4.8,21.4c0,10.7-2.6,18.9-7.9,24.6c-5.3,5.7-12.9,8.6-23,8.6
				C-29.9,269-37.4,266.2-42.5,260.5"/>
		</g>
		<g transform="translate(415.29 225.89)">
			<path class="st0" d="M-29.6-26.5h22.4L-27.2-5h-15.5L-29.6-26.5z M-59.4,3.7h55.9v18.6h-35.4v34.5h28.1v18.6h-28.1v40h35.4v18.6
				h-55.9V3.7z"/>
		</g>
		<g transform="translate(447.97 199.81)">
			<path class="st0" d="M-24.5,29.8h54.2v18.6H-4v36.3h26.4v18.6H-4v56.8h-20.5L-24.5,29.8z"/>
		</g>
		<g transform="translate(267.54 231.85)">
			<path class="st0" d="M-52.8-39.3c6.6,2.1,10.8,6.4,13.2,13.2c23.8-41.8,59.5-65.3,106.6-72c-10.2-3.8-14.8-11.4-15.3-22.3
				c-3.3,2.4-6.3,4.7-9.4,6.8c-7,4.8-14.8,7.7-23.3,8.6c-5.2,0.6-9.8-0.6-14.3-3.4c-9.6-6.1-14.6-14.7-15.5-26
				c-0.6-7.6,0.6-15,2.3-21.5c1.8,6.4,3.4,13.5,5.9,20.3c2.4,6.6,6.7,12.1,13.2,15.2c10.3,5,19.7,2.8,28.3-4.1
				c9.3-7.5,14.7-17.6,18.7-28.6c4.3-11.8,5.2-23.8,1.6-36.1c-5.6-19-19.4-28.5-39.3-26.4c-14.6,1.6-26.7,8.6-37.5,18.2
				c-13.9,12.3-24.6,27.3-34.2,43.1c-4.4,7.2-8.4,14.7-12.6,22.1c-0.2,0.3-0.4,0.5-0.7,0.7c5-23.8,15.4-45.1,30.5-64.1l-0.2-0.9
				c-5.5,0.2-11,0.1-16.4,0.8c-16.9,2.2-29.5,11-37.6,26c-6.4,11.8-9.1,24.7-10.7,38.5c5.2-2.7,9.9-5.1,14.5-7.5
				c0.1,0.1,0.2,0.3,0.3,0.4c-2.5,3-5,5.9-7.5,8.9c-8.4,10.4-16.4,21-21,33.7c-4.5,12.2-5,24.8-1.1,37.3
				c4.1,13.2,14.3,20.3,26.9,17.8c5.3-1.1,10.6-3.6,15.3-6.4C-58.4-55-49-67.3-41.3-81c2.6-4.6,5-9.3,7.5-14
				C-35.8-75-41.8-56.4-52.8-39.3 M-41.9-16.8c-3.2-6.5-7.8-11.6-15.1-13.3c-1.6-0.4-3.7-0.2-5.2,0.5c-8.5,4.1-17.3,7-26.6,8
				c-14.6,1.6-27.6-1.8-37.3-13.6c-7-8.6-10-18.7-10.1-29.6c-0.2-25.8,11.1-46,30.5-62.1c1.9-1.5,2.5-2.9,2.3-5.3
				c-1.3-15.7-0.1-31.1,7.2-45.4c7-13.7,18.1-22.1,33-25.5c10.6-2.4,21.2-2,31.8,0.1c2.7,0.5,4.5,0,6.5-2
				c11.8-12.4,25.5-22.1,42.6-25.5c19.5-3.9,36.2,1.3,48.8,17.1c9.3,11.6,12.3,25.2,10.9,39.9c-1.5,16.6-8.5,30.9-18.3,44
				c-1,1.3-1.9,2.6-3.1,4.2c11.4-3.2,13.5-3.3,17.3-1.2c-1,0.7-1.9,1.4-2.8,2.2c-5.6,5-6.5,10.9-2.4,17.2c1.5,2.3,3.2,4.6,5.2,6.5
				c1.4,1.4,3.2,2.5,5,3.1c5.8,2,11.2,4.5,15.8,8.7c12.5,11.4,9.3,28.5-1.9,39.1c0.4-4.2,1.3-8.6,1.1-13.1
				c-0.1-4.1-0.7-8.5-2.3-12.2c-3.3-7.9-10.4-10.4-18.3-10.9c-16.1-1-30.8,3.9-44.9,11.2C11.1-66-3.7-54.7-16.8-41.2
				c-8.3,8.6-16,17.8-24.1,26.8C-41.1-15-41.5-15.9-41.9-16.8"/>
		</g>
	</g>
</g>
</svg>
